<svg width="16" height="16" viewBox="0 0 16 16" fill="none" xmlns="http://www.w3.org/2000/svg">
<g clip-path="url(#clip0_468_424)">
<path d="M8.60186 13.7153C10.0958 11.8294 11.8058 10.1053 13.7008 8.57435L13.7323 8.54892C13.8163 8.48109 13.8837 8.3969 13.9299 8.30213C13.9761 8.20736 14 8.10426 14 7.99992C14 7.89558 13.9761 7.79248 13.9299 7.69771C13.8837 7.60294 13.8163 7.51875 13.7323 7.45092L13.7008 7.4255C11.8058 5.89455 10.0958 4.17047 8.60186 2.28467V2.28467C8.53187 2.1963 8.44103 2.12456 8.33656 2.07515C8.23208 2.02573 8.11684 2 8 2C7.88315 2 7.76792 2.02573 7.66344 2.07515C7.55897 2.12456 7.46813 2.1963 7.39814 2.28467V2.28467C5.90422 4.17051 4.19418 5.89462 2.29915 7.4256L2.26769 7.45103C2.18374 7.51885 2.11635 7.60305 2.07014 7.69782C2.02393 7.79259 2 7.89569 2 8.00003C2 8.10436 2.02393 8.20746 2.07014 8.30223C2.11635 8.39701 2.18374 8.4812 2.26769 8.54903L2.29915 8.57445C4.19418 10.1054 5.90422 11.8295 7.39814 13.7154V13.7154C7.46814 13.8037 7.55898 13.8755 7.66346 13.9249C7.76794 13.9743 7.88318 14 8.00003 14C8.11687 14 8.23211 13.9742 8.33658 13.9248C8.44105 13.8754 8.53188 13.8037 8.60186 13.7153V13.7153Z" fill="#00C48C" stroke="#00C48C" stroke-width="1.5" stroke-linecap="round" stroke-linejoin="round"/>
</g>
<defs>
<clipPath id="clip0_468_424">
<rect width="16" height="16" fill="white"/>
</clipPath>
</defs>
</svg>
